<?xml version="1.0" encoding="iso-8859-1"?>
<!-- Generator: Adobe Illustrator 18.1.1, SVG Export Plug-In . SVG Version: 6.00 Build 0)  -->
<svg version="1.1" id="Capa_1" xmlns="http://www.w3.org/2000/svg" xmlns:xlink="http://www.w3.org/1999/xlink" x="0px" y="0px"
	 viewBox="0 0 612 612" style="enable-background:new 0 0 612 612;" xml:space="preserve">
<g>
	<g>
		<path style="fill:#ffffff;" d="M315.792,347.616l27.54,27.54l-41.004,12.852L315.792,347.616z M612,306
			c0,28.152-3.672,55.284-11.016,81.396c-7.347,26.109-17.646,50.487-30.906,73.134c-13.26,22.644-29.172,43.248-47.736,61.812
			c-18.562,18.564-39.168,34.479-61.812,47.736c-22.646,13.26-47.022,23.562-73.136,30.906C361.284,608.328,334.152,612,306,612
			s-55.284-3.672-81.396-11.016c-26.112-7.347-50.49-17.646-73.134-30.906s-43.248-29.172-61.812-47.736
			c-18.564-18.562-34.476-39.168-47.736-61.812c-13.26-22.646-23.562-47.022-30.906-73.135C3.672,361.284,0,334.152,0,306
			s3.672-55.284,11.016-81.396s17.646-50.49,30.906-73.134s29.172-43.248,47.736-61.812s39.168-34.476,61.812-47.736
			s47.022-23.562,73.134-30.906S277.848,0,306,0c42.024,0,81.702,8.058,119.034,24.174s69.768,37.944,97.308,65.484
			s49.368,59.976,65.484,97.308S612,263.976,612,306z M494.496,252.756c0-1.632-0.816-3.264-2.448-4.896l-48.96-49.572
			c-3.672-2.856-6.936-2.856-9.792,0l-4.896,4.896v-77.112c0-6.528-3.267-9.792-9.792-9.792h-146.88l-0.612-0.612h-18.972
			c-0.408,0-0.612,0.204-0.612,0.612h-2.448v1.224l-75.276,73.44c0,0.408-0.204,0.816-0.612,1.224v1.224v20.196v253.98
			c0,6.525,3.264,9.792,9.792,9.792h69.768h95.474h70.381c6.525,0,9.792-3.471,9.792-10.404v-95.472c0-2.04-0.408-3.57-1.227-4.593
			c-0.813-1.02-2.244-0.51-4.284,1.53l-4.896,4.896c-2.04,2.04-4.794,4.59-8.262,7.647c-3.471,3.063-8.061,7.446-13.771,13.158
			v50.796h-47.736h-95.472H205.02V217.26h66.096c2.448,0,3.672-1.224,3.672-3.672v-64.872h121.176v86.904l-95.472,95.472
			c-0.408,0.408-1.02,1.428-1.836,3.063l-23.868,72.827c-0.816,2.446-0.204,4.69,1.836,6.73c1.224,1.632,2.856,2.448,4.896,2.448
			c0.408,0,0.714-0.104,0.918-0.309c0.204-0.201,0.51-0.306,0.918-0.306l73.44-23.868c0.816,0,1.836-0.609,3.063-1.836
			L492.048,257.65C493.68,256.02,494.496,254.388,494.496,252.756z"/>
	</g>
</g>
<g>
</g>
<g>
</g>
<g>
</g>
<g>
</g>
<g>
</g>
<g>
</g>
<g>
</g>
<g>
</g>
<g>
</g>
<g>
</g>
<g>
</g>
<g>
</g>
<g>
</g>
<g>
</g>
<g>
</g>
</svg>
