<?xml version="1.0" encoding="iso-8859-1"?>
<!-- Generator: Adobe Illustrator 16.0.0, SVG Export Plug-In . SVG Version: 6.00 Build 0)  -->
<!DOCTYPE svg PUBLIC "-//W3C//DTD SVG 1.1//EN" "http://www.w3.org/Graphics/SVG/1.1/DTD/svg11.dtd">
<svg version="1.1" id="Capa_1" xmlns="http://www.w3.org/2000/svg" xmlns:xlink="http://www.w3.org/1999/xlink" x="0px" y="0px"
	 width="314.065px" height="314.064px" viewBox="0 0 314.065 314.064" style="enable-background:new 0 0 314.065 314.064;"
	 xml:space="preserve">
<g>
	<g id="_x33_60._Next">
		<g>
			<path d="M222.047,149.318l-51.584-31.213c-7.414-4.491-13.399-1.108-13.365,7.565l0.076,17.641l-41.662-25.207
				c-7.417-4.491-13.4-1.108-13.366,7.565l0.272,62.799c0.03,8.672,6.093,12.09,13.535,7.642l41.349-24.754l0.076,17.12
				c0.03,8.672,6.095,12.091,13.534,7.643l51.114-30.601C229.453,161.062,229.46,153.807,222.047,149.318z M293.002,78.529
				C249.646,3.434,153.618-22.298,78.529,21.066C3.434,64.417-22.298,160.44,21.066,235.532
				c43.35,75.095,139.375,100.83,214.465,57.47C310.627,249.638,336.363,153.618,293.002,78.529z M219.834,265.8
				c-60.075,34.692-136.894,14.106-171.576-45.973C13.568,159.76,34.153,82.933,94.23,48.259
				c60.071-34.69,136.894-14.106,171.578,45.971C300.493,154.305,279.906,231.115,219.834,265.8z" fill="white"/>
		</g>
	</g>
</g>
<g>
</g>
<g>
</g>
<g>
</g>
<g>
</g>
<g>
</g>
<g>
</g>
<g>
</g>
<g>
</g>
<g>
</g>
<g>
</g>
<g>
</g>
<g>
</g>
<g>
</g>
<g>
</g>
<g>
</g>
</svg>
