<?xml version="1.0" encoding="iso-8859-1"?>
<!-- Generator: Adobe Illustrator 16.0.0, SVG Export Plug-In . SVG Version: 6.00 Build 0)  -->
<!DOCTYPE svg PUBLIC "-//W3C//DTD SVG 1.1//EN" "http://www.w3.org/Graphics/SVG/1.1/DTD/svg11.dtd">
<svg version="1.1" id="Capa_1" xmlns="http://www.w3.org/2000/svg" xmlns:xlink="http://www.w3.org/1999/xlink" x="0px" y="0px"
	 width="475.082px" height="475.081px" viewBox="0 0 475.082 475.081" style="enable-background:new 0 0 475.082 475.081;"
	 xml:space="preserve">
<g>
	<g>
		<path d="M200.999,63.952c-4.946,0-9.229,1.812-12.847,5.426l-95.074,95.075H18.276c-4.952,0-9.234,1.812-12.85,5.424
			C1.809,173.493,0,177.778,0,182.726v109.63c0,4.949,1.809,9.233,5.426,12.848c3.619,3.617,7.902,5.427,12.85,5.427h74.798
			l95.074,95.078c3.617,3.61,7.9,5.424,12.847,5.424c4.952,0,9.234-1.813,12.85-5.424c3.617-3.614,5.426-7.901,5.426-12.847V82.228
			c0-4.948-1.809-9.234-5.422-12.85C210.23,65.764,205.951,63.952,200.999,63.952z" fill="white"/>
	</g>
</g>
<g>
</g>
<g>
</g>
<g>
</g>
<g>
</g>
<g>
</g>
<g>
</g>
<g>
</g>
<g>
</g>
<g>
</g>
<g>
</g>
<g>
</g>
<g>
</g>
<g>
</g>
<g>
</g>
<g>
</g>
</svg>
